<svg xmlns="http://www.w3.org/2000/svg" xmlns:xlink="http://www.w3.org/1999/xlink" width="192" zoomAndPan="magnify" viewBox="0 0 144 143.999998" height="192" preserveAspectRatio="xMidYMid meet" version="1.0"><defs><clipPath id="55f240cae8"><path d="M 14.398438 16.878906 L 133.648438 16.878906 L 133.648438 112.128906 L 14.398438 112.128906 Z M 14.398438 16.878906 " clip-rule="nonzero"/></clipPath></defs><path fill="#fceadc" d="M 48.171875 41.390625 L 120.648438 41.390625 C 120.921875 41.390625 121.1875 41.363281 121.453125 41.3125 C 121.714844 41.261719 121.972656 41.183594 122.222656 41.082031 C 122.472656 40.976562 122.710938 40.851562 122.933594 40.703125 C 123.160156 40.554688 123.367188 40.382812 123.558594 40.195312 C 123.746094 40.003906 123.917969 39.796875 124.066406 39.574219 C 124.21875 39.351562 124.34375 39.117188 124.449219 38.871094 C 124.550781 38.621094 124.628906 38.367188 124.683594 38.101562 C 124.734375 37.839844 124.761719 37.574219 124.761719 37.304688 C 124.761719 37.039062 124.734375 36.773438 124.683594 36.507812 C 124.628906 36.246094 124.550781 35.992188 124.449219 35.742188 C 124.34375 35.496094 124.21875 35.257812 124.066406 35.035156 C 123.917969 34.8125 123.746094 34.605469 123.558594 34.417969 C 123.367188 34.226562 123.160156 34.058594 122.933594 33.910156 C 122.710938 33.761719 122.472656 33.632812 122.222656 33.53125 C 121.972656 33.429688 121.714844 33.351562 121.453125 33.300781 C 121.1875 33.246094 120.921875 33.222656 120.648438 33.222656 L 48.171875 33.222656 C 47.898438 33.222656 47.632812 33.246094 47.367188 33.300781 C 47.105469 33.351562 46.847656 33.429688 46.597656 33.53125 C 46.347656 33.632812 46.109375 33.761719 45.886719 33.910156 C 45.660156 34.058594 45.453125 34.226562 45.261719 34.417969 C 45.074219 34.605469 44.902344 34.8125 44.753906 35.035156 C 44.601562 35.257812 44.476562 35.496094 44.371094 35.742188 C 44.269531 35.992188 44.191406 36.246094 44.136719 36.507812 C 44.085938 36.773438 44.058594 37.039062 44.058594 37.304688 C 44.058594 37.574219 44.085938 37.839844 44.136719 38.101562 C 44.191406 38.367188 44.269531 38.621094 44.371094 38.871094 C 44.476562 39.117188 44.601562 39.351562 44.753906 39.574219 C 44.902344 39.796875 45.074219 40.003906 45.261719 40.195312 C 45.453125 40.382812 45.660156 40.554688 45.886719 40.703125 C 46.109375 40.851562 46.347656 40.976562 46.597656 41.082031 C 46.847656 41.183594 47.105469 41.261719 47.367188 41.3125 C 47.632812 41.363281 47.898438 41.390625 48.171875 41.390625 Z M 48.171875 41.390625 " fill-opacity="1" fill-rule="nonzero"/><path fill="#fccd7b" d="M 128.546875 28.277344 L 60.609375 28.277344 L 60.609375 27.09375 L 60.546875 27.09375 L 58.683594 18.042969 C 58.621094 17.738281 58.425781 17.523438 58.230469 17.523438 L 16.429688 17.523438 C 16.191406 17.523438 15.996094 17.804688 15.976562 18.171875 L 15.109375 27.09375 L 15.066406 27.09375 L 15.066406 107.078125 C 15.066406 107.367188 15.097656 107.652344 15.152344 107.9375 C 15.210938 108.222656 15.292969 108.496094 15.40625 108.765625 C 15.515625 109.03125 15.652344 109.285156 15.816406 109.527344 C 15.976562 109.765625 16.160156 109.988281 16.367188 110.195312 C 16.574219 110.398438 16.796875 110.582031 17.039062 110.742188 C 17.28125 110.902344 17.535156 111.039062 17.804688 111.148438 C 18.074219 111.261719 18.351562 111.34375 18.636719 111.398438 C 18.921875 111.457031 19.210938 111.484375 19.503906 111.484375 L 128.546875 111.484375 C 128.839844 111.484375 129.125 111.457031 129.414062 111.398438 C 129.699219 111.34375 129.976562 111.261719 130.246094 111.148438 C 130.511719 111.039062 130.769531 110.902344 131.011719 110.742188 C 131.253906 110.582031 131.476562 110.398438 131.683594 110.195312 C 131.890625 109.988281 132.074219 109.765625 132.234375 109.527344 C 132.398438 109.285156 132.535156 109.03125 132.644531 108.765625 C 132.757812 108.496094 132.839844 108.222656 132.898438 107.9375 C 132.953125 107.652344 132.984375 107.367188 132.984375 107.078125 L 132.984375 32.683594 C 132.984375 32.394531 132.953125 32.105469 132.898438 31.824219 C 132.839844 31.539062 132.757812 31.265625 132.644531 30.996094 C 132.535156 30.730469 132.398438 30.476562 132.234375 30.234375 C 132.074219 29.992188 131.890625 29.769531 131.683594 29.566406 C 131.476562 29.363281 131.253906 29.179688 131.011719 29.019531 C 130.769531 28.859375 130.511719 28.722656 130.246094 28.609375 C 129.976562 28.5 129.699219 28.417969 129.414062 28.359375 C 129.125 28.304688 128.839844 28.277344 128.546875 28.277344 Z M 54.507812 21.71875 C 54.574219 21.652344 54.65625 21.625 54.746094 21.632812 C 54.835938 21.625 54.90625 21.652344 54.964844 21.71875 L 55.765625 22.578125 L 55.914062 22.425781 L 56.566406 21.824219 C 56.628906 21.757812 56.707031 21.722656 56.804688 21.71875 C 56.894531 21.726562 56.972656 21.761719 57.039062 21.824219 C 57.097656 21.886719 57.125 21.957031 57.128906 22.039062 C 57.121094 22.128906 57.09375 22.207031 57.039062 22.277344 C 56.796875 22.480469 56.566406 22.695312 56.347656 22.921875 L 56.195312 23.050781 L 57.105469 24.039062 C 57.167969 24.105469 57.199219 24.183594 57.199219 24.277344 C 57.199219 24.367188 57.167969 24.445312 57.105469 24.511719 C 57.042969 24.570312 56.972656 24.597656 56.890625 24.597656 C 56.800781 24.59375 56.722656 24.566406 56.652344 24.511719 L 55.742188 23.523438 L 55.589844 23.695312 L 54.984375 24.339844 C 54.941406 24.410156 54.875 24.441406 54.789062 24.425781 C 54.695312 24.421875 54.609375 24.390625 54.53125 24.339844 C 54.402344 24.175781 54.410156 24.019531 54.554688 23.867188 C 54.75 23.632812 54.960938 23.414062 55.179688 23.203125 L 55.308594 23.050781 L 54.507812 22.191406 C 54.445312 22.125 54.414062 22.046875 54.414062 21.953125 C 54.414062 21.863281 54.445312 21.785156 54.507812 21.71875 Z M 48.171875 32.789062 L 120.648438 32.789062 C 120.949219 32.789062 121.242188 32.820312 121.535156 32.878906 C 121.828125 32.9375 122.113281 33.023438 122.386719 33.136719 C 122.664062 33.25 122.925781 33.386719 123.171875 33.550781 C 123.421875 33.71875 123.652344 33.90625 123.863281 34.113281 C 124.070312 34.324219 124.261719 34.550781 124.425781 34.796875 C 124.589844 35.042969 124.730469 35.304688 124.847656 35.578125 C 124.960938 35.851562 125.046875 36.136719 125.105469 36.425781 C 125.164062 36.714844 125.191406 37.007812 125.191406 37.304688 C 125.191406 37.601562 125.164062 37.894531 125.105469 38.1875 C 125.046875 38.476562 124.960938 38.757812 124.847656 39.035156 C 124.730469 39.308594 124.589844 39.566406 124.425781 39.8125 C 124.261719 40.058594 124.070312 40.289062 123.863281 40.5 C 123.652344 40.707031 123.421875 40.894531 123.171875 41.058594 C 122.925781 41.222656 122.664062 41.363281 122.386719 41.476562 C 122.113281 41.589844 121.828125 41.675781 121.535156 41.734375 C 121.242188 41.792969 120.949219 41.820312 120.648438 41.820312 L 48.171875 41.820312 C 47.871094 41.820312 47.578125 41.792969 47.285156 41.734375 C 46.992188 41.675781 46.707031 41.589844 46.433594 41.476562 C 46.15625 41.363281 45.894531 41.222656 45.648438 41.058594 C 45.398438 40.894531 45.167969 40.707031 44.957031 40.5 C 44.75 40.289062 44.558594 40.058594 44.394531 39.8125 C 44.230469 39.566406 44.089844 39.308594 43.972656 39.035156 C 43.859375 38.757812 43.773438 38.476562 43.714844 38.1875 C 43.65625 37.894531 43.628906 37.601562 43.628906 37.304688 C 43.628906 37.007812 43.65625 36.714844 43.714844 36.425781 C 43.773438 36.136719 43.859375 35.851562 43.972656 35.578125 C 44.089844 35.304688 44.230469 35.042969 44.394531 34.796875 C 44.558594 34.550781 44.75 34.324219 44.957031 34.113281 C 45.167969 33.90625 45.398438 33.71875 45.648438 33.550781 C 45.894531 33.386719 46.15625 33.25 46.433594 33.136719 C 46.707031 33.023438 46.992188 32.9375 47.285156 32.878906 C 47.578125 32.820312 47.871094 32.789062 48.171875 32.789062 Z M 37.351562 36.640625 C 37.660156 36.144531 38.09375 35.808594 38.652344 35.628906 C 38.832031 35.566406 39.019531 35.539062 39.214844 35.542969 C 39.46875 35.539062 39.714844 35.589844 39.949219 35.695312 L 40.292969 35.84375 L 40.207031 35.199219 C 40.214844 35.113281 40.25 35.042969 40.316406 34.984375 C 40.386719 34.933594 40.46875 34.90625 40.554688 34.898438 C 40.640625 34.90625 40.710938 34.941406 40.769531 35.003906 C 40.835938 35.070312 40.835938 35.132812 40.855469 35.261719 L 41.074219 36.789062 C 41.0625 36.855469 41.035156 36.914062 40.988281 36.960938 L 40.8125 37.089844 C 40.378906 37.230469 39.929688 37.300781 39.472656 37.304688 L 39.320312 37.304688 C 39.230469 37.304688 39.152344 37.273438 39.082031 37.214844 C 39.015625 37.152344 38.980469 37.074219 38.976562 36.984375 C 38.980469 36.902344 39.011719 36.832031 39.0625 36.769531 C 39.121094 36.707031 39.191406 36.671875 39.277344 36.660156 L 39.515625 36.660156 L 39.582031 36.230469 L 39.386719 36.1875 L 38.867188 36.1875 L 38.738281 36.230469 L 38.695312 36.230469 L 38.519531 36.316406 C 38.3125 36.441406 38.132812 36.597656 37.980469 36.789062 C 37.890625 36.917969 37.808594 37.054688 37.742188 37.199219 L 37.742188 37.261719 C 37.742188 37.285156 37.71875 37.371094 37.699219 37.371094 C 37.675781 37.371094 37.675781 37.457031 37.675781 37.5 L 37.675781 37.734375 C 37.675781 37.777344 37.675781 37.800781 37.699219 37.820312 L 37.699219 37.886719 C 37.71875 37.929688 37.71875 37.972656 37.742188 38.015625 L 37.742188 38.167969 L 37.851562 38.359375 L 37.894531 38.402344 L 37.914062 38.402344 C 37.914062 38.425781 37.957031 38.46875 37.957031 38.46875 L 38 38.511719 L 38.023438 38.511719 L 38.109375 38.574219 L 38.542969 38.8125 L 38.652344 38.855469 L 38.886719 38.941406 C 38.96875 38.980469 39.054688 39.003906 39.148438 39.003906 L 39.257812 39.003906 L 39.320312 38.597656 L 39.496094 38.8125 L 39.277344 39.003906 L 39.710938 39.003906 C 39.855469 38.976562 39.992188 38.925781 40.121094 38.855469 C 40.164062 38.8125 40.214844 38.800781 40.273438 38.8125 C 40.390625 38.816406 40.484375 38.867188 40.554688 38.960938 C 40.597656 39.027344 40.613281 39.097656 40.597656 39.175781 C 40.574219 39.277344 40.515625 39.359375 40.425781 39.414062 C 40.125 39.59375 39.800781 39.679688 39.449219 39.671875 C 39.113281 39.660156 38.789062 39.585938 38.476562 39.457031 C 38.183594 39.347656 37.910156 39.203125 37.65625 39.027344 C 37.398438 38.839844 37.21875 38.59375 37.113281 38.296875 C 36.914062 37.703125 36.992188 37.152344 37.351562 36.640625 Z M 30.125 37.304688 C 30.191406 37.238281 30.269531 37.203125 30.363281 37.199219 L 32.722656 37.199219 L 30.839844 35.457031 C 30.722656 35.382812 30.691406 35.28125 30.753906 35.15625 C 30.820312 35.007812 30.9375 34.929688 31.101562 34.917969 C 31.183594 34.917969 31.257812 34.945312 31.316406 35.003906 L 33.261719 36.832031 C 33.523438 37.070312 33.675781 37.21875 33.609375 37.457031 C 33.527344 37.671875 33.398438 37.851562 33.21875 37.992188 L 33.113281 38.125 L 32.527344 38.726562 C 32.160156 39.113281 31.726562 39.5 31.316406 39.863281 C 31.242188 39.929688 31.15625 39.964844 31.054688 39.972656 C 30.972656 39.972656 30.898438 39.945312 30.839844 39.886719 C 30.773438 39.8125 30.746094 39.726562 30.753906 39.628906 C 30.746094 39.546875 30.773438 39.484375 30.839844 39.433594 L 31.964844 38.382812 L 32.050781 38.273438 L 32.484375 37.84375 L 30.363281 37.84375 C 30.273438 37.84375 30.199219 37.8125 30.132812 37.75 C 30.070312 37.6875 30.039062 37.609375 30.039062 37.519531 C 30.027344 37.433594 30.058594 37.363281 30.125 37.304688 Z M 21.753906 37.542969 C 21.746094 37.445312 21.773438 37.359375 21.839844 37.285156 L 24.21875 34.917969 C 24.28125 34.859375 24.351562 34.832031 24.4375 34.832031 C 24.53125 34.835938 24.609375 34.871094 24.671875 34.941406 C 24.738281 34.988281 24.769531 35.054688 24.761719 35.132812 C 24.769531 35.234375 24.738281 35.320312 24.671875 35.390625 L 22.769531 37.261719 L 25.300781 37.261719 C 25.394531 37.261719 25.472656 37.296875 25.539062 37.363281 C 25.601562 37.433594 25.632812 37.515625 25.625 37.605469 C 25.640625 37.691406 25.609375 37.753906 25.539062 37.800781 C 25.476562 37.867188 25.394531 37.90625 25.300781 37.90625 L 22.8125 37.90625 L 24.542969 39.714844 C 24.613281 39.773438 24.648438 39.847656 24.648438 39.941406 C 24.648438 40.03125 24.613281 40.105469 24.542969 40.164062 C 24.488281 40.230469 24.414062 40.257812 24.328125 40.25 C 24.234375 40.257812 24.15625 40.226562 24.089844 40.164062 L 21.839844 37.820312 C 21.761719 37.753906 21.734375 37.667969 21.753906 37.5625 Z M 126.925781 102.238281 C 126.925781 102.609375 126.851562 102.964844 126.710938 103.308594 C 126.566406 103.652344 126.363281 103.953125 126.101562 104.214844 C 125.835938 104.476562 125.53125 104.679688 125.1875 104.820312 C 124.84375 104.964844 124.484375 105.035156 124.113281 105.035156 L 24.15625 105.035156 C 23.78125 105.035156 23.421875 104.964844 23.078125 104.820312 C 22.734375 104.679688 22.429688 104.476562 22.164062 104.214844 C 21.902344 103.953125 21.699219 103.652344 21.554688 103.308594 C 21.414062 102.964844 21.34375 102.609375 21.34375 102.238281 L 21.34375 47.410156 C 21.34375 47.039062 21.414062 46.683594 21.554688 46.34375 C 21.699219 46 21.902344 45.695312 22.164062 45.433594 C 22.429688 45.171875 22.734375 44.972656 23.078125 44.828125 C 23.421875 44.6875 23.78125 44.617188 24.15625 44.617188 L 124.113281 44.617188 C 124.484375 44.617188 124.84375 44.6875 125.1875 44.828125 C 125.53125 44.972656 125.835938 45.171875 126.101562 45.433594 C 126.363281 45.695312 126.566406 46 126.710938 46.34375 C 126.851562 46.683594 126.925781 47.039062 126.925781 47.410156 Z M 126.925781 102.238281 " fill-opacity="1" fill-rule="nonzero"/><g clip-path="url(#55f240cae8)"><path fill="#040205" d="M 128.546875 27.628906 L 61.261719 27.628906 L 61.261719 26.449219 L 61.066406 26.449219 L 59.355469 18.171875 L 59.3125 17.910156 C 59.183594 17.308594 58.75 16.878906 58.230469 16.878906 L 16.429688 16.878906 C 15.847656 16.878906 15.371094 17.417969 15.328125 18.105469 L 14.527344 26.449219 L 14.417969 26.449219 L 14.417969 107.078125 C 14.417969 107.410156 14.449219 107.738281 14.515625 108.0625 C 14.582031 108.386719 14.675781 108.703125 14.804688 109.011719 C 14.933594 109.316406 15.089844 109.609375 15.273438 109.882812 C 15.460938 110.160156 15.671875 110.414062 15.90625 110.648438 C 16.144531 110.882812 16.402344 111.09375 16.679688 111.277344 C 16.957031 111.460938 17.25 111.617188 17.558594 111.746094 C 17.867188 111.871094 18.183594 111.96875 18.511719 112.03125 C 18.839844 112.097656 19.167969 112.128906 19.503906 112.128906 L 128.546875 112.128906 C 128.882812 112.128906 129.210938 112.097656 129.539062 112.03125 C 129.867188 111.96875 130.183594 111.871094 130.492188 111.746094 C 130.800781 111.617188 131.09375 111.460938 131.371094 111.277344 C 131.648438 111.09375 131.90625 110.882812 132.140625 110.648438 C 132.378906 110.414062 132.589844 110.160156 132.773438 109.882812 C 132.960938 109.609375 133.117188 109.316406 133.246094 109.011719 C 133.371094 108.703125 133.46875 108.386719 133.535156 108.0625 C 133.597656 107.738281 133.632812 107.410156 133.632812 107.078125 L 133.632812 32.683594 C 133.632812 32.351562 133.597656 32.023438 133.535156 31.699219 C 133.46875 31.371094 133.371094 31.054688 133.246094 30.75 C 133.117188 30.441406 132.960938 30.152344 132.773438 29.875 C 132.589844 29.601562 132.378906 29.34375 132.140625 29.109375 C 131.90625 28.875 131.648438 28.667969 131.371094 28.480469 C 131.09375 28.296875 130.800781 28.140625 130.492188 28.015625 C 130.183594 27.886719 129.867188 27.792969 129.539062 27.726562 C 129.210938 27.664062 128.882812 27.628906 128.546875 27.628906 Z M 132.765625 107.078125 C 132.765625 107.351562 132.738281 107.625 132.683594 107.894531 C 132.632812 108.164062 132.550781 108.425781 132.445312 108.683594 C 132.339844 108.9375 132.207031 109.175781 132.054688 109.40625 C 131.902344 109.636719 131.726562 109.847656 131.53125 110.042969 C 131.335938 110.238281 131.121094 110.410156 130.890625 110.5625 C 130.660156 110.714844 130.417969 110.84375 130.160156 110.949219 C 129.90625 111.054688 129.640625 111.136719 129.371094 111.1875 C 129.097656 111.242188 128.824219 111.269531 128.546875 111.269531 L 19.503906 111.269531 C 19.226562 111.269531 18.953125 111.242188 18.679688 111.1875 C 18.40625 111.136719 18.144531 111.054688 17.886719 110.949219 C 17.632812 110.84375 17.390625 110.714844 17.160156 110.5625 C 16.929688 110.410156 16.714844 110.238281 16.519531 110.042969 C 16.324219 109.847656 16.148438 109.636719 15.996094 109.40625 C 15.839844 109.175781 15.710938 108.9375 15.605469 108.683594 C 15.5 108.425781 15.417969 108.164062 15.363281 107.894531 C 15.3125 107.625 15.285156 107.351562 15.285156 107.078125 L 15.285156 27.308594 L 15.304688 27.308594 L 16.191406 18.171875 C 16.191406 17.910156 16.34375 17.738281 16.429688 17.738281 L 58.230469 17.738281 C 58.296875 17.738281 58.425781 17.847656 58.46875 18.085938 L 60.371094 27.308594 L 60.394531 27.308594 L 60.394531 28.492188 L 128.546875 28.492188 C 128.824219 28.492188 129.097656 28.515625 129.371094 28.570312 C 129.640625 28.625 129.90625 28.703125 130.160156 28.808594 C 130.417969 28.914062 130.660156 29.042969 130.890625 29.195312 C 131.121094 29.351562 131.335938 29.523438 131.53125 29.71875 C 131.726562 29.914062 131.902344 30.125 132.054688 30.355469 C 132.207031 30.582031 132.339844 30.824219 132.445312 31.078125 C 132.550781 31.332031 132.632812 31.59375 132.683594 31.867188 C 132.738281 32.136719 132.765625 32.40625 132.765625 32.683594 Z M 48.171875 42.035156 L 120.648438 42.035156 C 120.960938 42.035156 121.273438 42.007812 121.578125 41.945312 C 121.886719 41.886719 122.183594 41.796875 122.472656 41.675781 C 122.761719 41.558594 123.035156 41.410156 123.292969 41.238281 C 123.554688 41.066406 123.792969 40.871094 124.015625 40.652344 C 124.238281 40.429688 124.433594 40.191406 124.609375 39.933594 C 124.78125 39.675781 124.929688 39.402344 125.046875 39.117188 C 125.167969 38.828125 125.257812 38.535156 125.320312 38.230469 C 125.378906 37.925781 125.410156 37.617188 125.410156 37.304688 C 125.410156 36.996094 125.378906 36.6875 125.320312 36.382812 C 125.257812 36.078125 125.167969 35.78125 125.046875 35.496094 C 124.929688 35.207031 124.78125 34.9375 124.609375 34.679688 C 124.433594 34.417969 124.238281 34.179688 124.015625 33.960938 C 123.792969 33.742188 123.554688 33.546875 123.292969 33.371094 C 123.035156 33.199219 122.761719 33.054688 122.472656 32.9375 C 122.183594 32.816406 121.886719 32.726562 121.578125 32.667969 C 121.273438 32.605469 120.960938 32.574219 120.648438 32.574219 L 48.171875 32.574219 C 47.859375 32.574219 47.546875 32.605469 47.242188 32.667969 C 46.933594 32.726562 46.636719 32.816406 46.347656 32.9375 C 46.058594 33.054688 45.785156 33.199219 45.527344 33.371094 C 45.265625 33.546875 45.027344 33.742188 44.804688 33.960938 C 44.582031 34.179688 44.386719 34.417969 44.210938 34.679688 C 44.039062 34.9375 43.890625 35.207031 43.773438 35.496094 C 43.652344 35.78125 43.5625 36.078125 43.5 36.382812 C 43.441406 36.6875 43.410156 36.996094 43.410156 37.304688 C 43.410156 37.617188 43.441406 37.925781 43.5 38.230469 C 43.5625 38.535156 43.652344 38.828125 43.773438 39.117188 C 43.890625 39.402344 44.039062 39.675781 44.210938 39.933594 C 44.386719 40.191406 44.582031 40.429688 44.804688 40.652344 C 45.027344 40.871094 45.265625 41.066406 45.527344 41.238281 C 45.785156 41.410156 46.058594 41.558594 46.347656 41.675781 C 46.636719 41.796875 46.933594 41.886719 47.242188 41.945312 C 47.546875 42.007812 47.859375 42.035156 48.171875 42.035156 Z M 48.171875 33.4375 L 120.648438 33.4375 C 121.167969 33.4375 121.664062 33.535156 122.140625 33.730469 C 122.617188 33.925781 123.039062 34.207031 123.402344 34.570312 C 123.769531 34.933594 124.050781 35.351562 124.25 35.824219 C 124.445312 36.300781 124.542969 36.792969 124.542969 37.304688 C 124.542969 37.820312 124.445312 38.3125 124.25 38.789062 C 124.050781 39.261719 123.769531 39.679688 123.402344 40.042969 C 123.039062 40.40625 122.617188 40.683594 122.140625 40.882812 C 121.664062 41.078125 121.167969 41.175781 120.648438 41.175781 L 48.171875 41.175781 C 47.652344 41.175781 47.15625 41.078125 46.679688 40.882812 C 46.203125 40.683594 45.78125 40.40625 45.417969 40.042969 C 45.050781 39.679688 44.769531 39.261719 44.570312 38.789062 C 44.375 38.3125 44.277344 37.820312 44.277344 37.304688 C 44.277344 36.792969 44.375 36.300781 44.570312 35.824219 C 44.769531 35.351562 45.050781 34.933594 45.417969 34.570312 C 45.78125 34.207031 46.203125 33.925781 46.679688 33.730469 C 47.15625 33.535156 47.652344 33.4375 48.171875 33.4375 Z M 124.113281 44.402344 L 24.15625 44.402344 C 23.753906 44.402344 23.367188 44.476562 22.996094 44.628906 C 22.625 44.785156 22.296875 45 22.011719 45.28125 C 21.730469 45.566406 21.511719 45.890625 21.355469 46.257812 C 21.203125 46.628906 21.125 47.011719 21.125 47.410156 L 21.125 102.238281 C 21.125 102.636719 21.203125 103.023438 21.355469 103.390625 C 21.511719 103.761719 21.730469 104.085938 22.011719 104.367188 C 22.296875 104.648438 22.625 104.867188 22.996094 105.019531 C 23.367188 105.171875 23.753906 105.25 24.15625 105.25 L 124.113281 105.25 C 124.511719 105.25 124.898438 105.171875 125.269531 105.019531 C 125.640625 104.867188 125.96875 104.648438 126.253906 104.367188 C 126.539062 104.085938 126.757812 103.761719 126.910156 103.390625 C 127.0625 103.023438 127.140625 102.636719 127.140625 102.238281 L 127.140625 47.410156 C 127.140625 47.011719 127.0625 46.628906 126.910156 46.257812 C 126.757812 45.890625 126.539062 45.566406 126.253906 45.28125 C 125.96875 45 125.640625 44.785156 125.269531 44.628906 C 124.898438 44.476562 124.511719 44.402344 124.113281 44.402344 Z M 126.273438 102.238281 C 126.273438 102.523438 126.21875 102.800781 126.109375 103.0625 C 126 103.324219 125.84375 103.558594 125.640625 103.761719 C 125.4375 103.960938 125.203125 104.117188 124.941406 104.226562 C 124.675781 104.335938 124.398438 104.390625 124.113281 104.390625 L 24.15625 104.390625 C 23.867188 104.390625 23.589844 104.335938 23.328125 104.226562 C 23.0625 104.117188 22.828125 103.960938 22.625 103.761719 C 22.421875 103.558594 22.265625 103.324219 22.15625 103.0625 C 22.046875 102.800781 21.992188 102.523438 21.992188 102.238281 L 21.992188 47.410156 C 21.992188 47.125 22.046875 46.851562 22.15625 46.589844 C 22.265625 46.324219 22.421875 46.09375 22.625 45.890625 C 22.828125 45.691406 23.0625 45.535156 23.328125 45.425781 C 23.589844 45.316406 23.867188 45.261719 24.15625 45.261719 L 124.113281 45.261719 C 124.398438 45.261719 124.675781 45.316406 124.941406 45.425781 C 125.203125 45.535156 125.4375 45.691406 125.640625 45.890625 C 125.84375 46.09375 126 46.324219 126.109375 46.589844 C 126.21875 46.851562 126.273438 47.125 126.273438 47.410156 Z M 54.359375 22.339844 C 54.246094 22.234375 54.191406 22.105469 54.191406 21.953125 C 54.191406 21.800781 54.246094 21.671875 54.359375 21.566406 C 54.460938 21.457031 54.585938 21.40625 54.738281 21.40625 C 54.886719 21.40625 55.011719 21.457031 55.117188 21.566406 L 55.765625 22.277344 L 56.414062 21.675781 C 56.519531 21.59375 56.640625 21.558594 56.777344 21.570312 C 56.910156 21.578125 57.023438 21.628906 57.121094 21.726562 C 57.214844 21.820312 57.269531 21.933594 57.277344 22.066406 C 57.285156 22.199219 57.25 22.320312 57.171875 22.425781 L 56.5 23.074219 C 56.757812 23.351562 57.019531 23.609375 57.257812 23.890625 C 57.367188 23.996094 57.421875 24.125 57.421875 24.277344 C 57.421875 24.429688 57.367188 24.558594 57.257812 24.664062 C 57.148438 24.761719 57.023438 24.808594 56.878906 24.808594 C 56.734375 24.808594 56.605469 24.761719 56.5 24.664062 C 56.242188 24.382812 56.003906 24.105469 55.742188 23.847656 L 55.160156 24.492188 C 55.050781 24.601562 54.921875 24.65625 54.769531 24.65625 C 54.617188 24.65625 54.484375 24.601562 54.378906 24.492188 C 54.28125 24.382812 54.234375 24.257812 54.234375 24.113281 C 54.234375 23.972656 54.28125 23.84375 54.378906 23.738281 L 55.007812 23.050781 Z M 36.875 38.402344 C 36.675781 37.734375 36.769531 37.113281 37.15625 36.53125 C 37.5 35.992188 37.976562 35.621094 38.585938 35.414062 C 39.074219 35.28125 39.558594 35.304688 40.035156 35.476562 L 39.992188 35.21875 C 39.984375 35.074219 40.035156 34.953125 40.144531 34.855469 C 40.253906 34.757812 40.386719 34.699219 40.53125 34.683594 C 40.683594 34.691406 40.816406 34.746094 40.921875 34.855469 C 41.019531 34.957031 41.070312 35.078125 41.074219 35.21875 L 41.289062 36.769531 C 41.28125 36.890625 41.234375 36.996094 41.160156 37.089844 C 41.089844 37.1875 40.996094 37.25 40.878906 37.285156 C 40.367188 37.460938 39.839844 37.539062 39.300781 37.519531 C 39.152344 37.515625 39.027344 37.460938 38.921875 37.359375 C 38.820312 37.253906 38.765625 37.128906 38.757812 36.984375 C 38.757812 36.835938 38.8125 36.707031 38.917969 36.601562 C 39.023438 36.5 39.148438 36.445312 39.300781 36.445312 L 39.515625 36.445312 L 39.363281 36.402344 L 39.0625 36.402344 C 39.0625 36.425781 38.933594 36.445312 38.933594 36.445312 L 38.78125 36.488281 L 38.628906 36.554688 C 38.449219 36.675781 38.292969 36.816406 38.152344 36.984375 C 38.066406 37.097656 37.996094 37.21875 37.9375 37.347656 C 37.917969 37.398438 37.90625 37.449219 37.894531 37.5 C 37.894531 37.542969 37.871094 37.5625 37.871094 37.605469 C 37.875 37.632812 37.867188 37.652344 37.851562 37.671875 L 37.851562 37.777344 C 37.847656 37.808594 37.855469 37.839844 37.871094 37.863281 L 37.871094 37.90625 C 37.871094 37.949219 37.894531 37.972656 37.894531 38.015625 L 37.894531 38.058594 L 37.980469 38.210938 L 38.066406 38.273438 C 38.066406 38.289062 38.074219 38.304688 38.089844 38.316406 L 38.175781 38.359375 L 38.605469 38.597656 L 38.695312 38.640625 L 38.910156 38.726562 L 39.148438 38.789062 L 39.601562 38.789062 C 39.730469 38.777344 39.84375 38.734375 39.949219 38.660156 C 40.082031 38.59375 40.21875 38.574219 40.363281 38.613281 C 40.507812 38.648438 40.625 38.730469 40.707031 38.855469 C 40.773438 38.984375 40.789062 39.117188 40.75 39.257812 C 40.714844 39.398438 40.632812 39.507812 40.511719 39.585938 C 39.839844 39.992188 39.039062 39.929688 38.347656 39.648438 C 38.035156 39.542969 37.75 39.390625 37.480469 39.199219 C 37.203125 38.992188 37 38.726562 36.875 38.402344 Z M 21.6875 37.972656 C 21.589844 37.851562 21.539062 37.710938 21.539062 37.554688 C 21.539062 37.394531 21.589844 37.257812 21.6875 37.132812 L 21.816406 37.003906 L 24.066406 34.769531 C 24.171875 34.667969 24.300781 34.617188 24.445312 34.617188 C 24.59375 34.617188 24.71875 34.667969 24.824219 34.769531 C 24.929688 34.878906 24.980469 35.007812 24.980469 35.15625 C 24.980469 35.304688 24.929688 35.433594 24.824219 35.542969 L 23.289062 37.046875 L 25.300781 37.046875 C 25.449219 37.046875 25.578125 37.101562 25.683594 37.207031 C 25.789062 37.308594 25.84375 37.4375 25.84375 37.585938 C 25.84375 37.734375 25.789062 37.859375 25.683594 37.964844 C 25.578125 38.070312 25.449219 38.125 25.300781 38.125 L 23.332031 38.125 L 24.695312 39.5625 C 24.777344 39.671875 24.8125 39.789062 24.800781 39.925781 C 24.792969 40.058594 24.742188 40.171875 24.644531 40.265625 C 24.550781 40.359375 24.433594 40.414062 24.300781 40.421875 C 24.167969 40.433594 24.046875 40.398438 23.9375 40.316406 Z M 29.824219 37.519531 C 29.824219 37.371094 29.875 37.246094 29.980469 37.140625 C 30.085938 37.035156 30.214844 36.984375 30.363281 36.984375 L 32.160156 36.984375 L 31.792969 36.640625 L 30.6875 35.609375 C 30.167969 35.132812 30.949219 34.382812 31.445312 34.855469 L 32.789062 36.082031 L 33.414062 36.683594 C 33.652344 36.898438 33.914062 37.132812 33.824219 37.5 C 33.738281 37.863281 33.457031 38.058594 33.261719 38.273438 L 32.679688 38.875 C 32.289062 39.261719 31.878906 39.671875 31.445312 40.035156 C 31.339844 40.117188 31.21875 40.152344 31.082031 40.144531 C 30.949219 40.132812 30.832031 40.082031 30.738281 39.988281 C 30.644531 39.890625 30.589844 39.777344 30.582031 39.644531 C 30.570312 39.511719 30.609375 39.390625 30.6875 39.285156 L 31.8125 38.230469 L 31.964844 38.058594 L 30.363281 38.058594 C 30.214844 38.058594 30.085938 38.007812 29.980469 37.902344 C 29.875 37.796875 29.824219 37.667969 29.824219 37.519531 Z M 29.824219 37.519531 " fill-opacity="1" fill-rule="nonzero"/></g></svg>