<svg xmlns="http://www.w3.org/2000/svg" xmlns:xlink="http://www.w3.org/1999/xlink" width="1920" zoomAndPan="magnify" viewBox="0 0 1440 809.999993" height="1080" preserveAspectRatio="xMidYMid meet" version="1.0"><defs><clipPath id="a209f79abd"><path d="M 576.074219 243 L 900.074219 243 L 900.074219 567 L 576.074219 567 Z M 576.074219 243 " clip-rule="nonzero"/></clipPath></defs><rect x="-144" width="1728" fill="#ffffff" y="-80.999999" height="971.999992" fill-opacity="1"/><rect x="-144" width="1728" fill="#ffffff" y="-80.999999" height="971.999992" fill-opacity="1"/><path fill="#cad5ee" d="M 657.074219 405 C 648.125 405 640.875 398.410156 640.875 390.269531 C 640.875 382.136719 648.125 375.542969 657.074219 375.542969 L 819.074219 375.542969 C 828.023438 375.542969 835.273438 382.132812 835.273438 390.269531 C 835.273438 398.402344 828.023438 405 819.074219 405 Z M 657.074219 405 " fill-opacity="1" fill-rule="nonzero"/><path fill="#cad5ee" d="M 640.875 449.179688 C 640.875 457.3125 648.125 463.910156 657.074219 463.910156 L 754.273438 463.910156 C 763.222656 463.910156 770.472656 457.320312 770.472656 449.179688 C 770.472656 441.042969 763.222656 434.453125 754.273438 434.453125 L 657.074219 434.453125 C 648.125 434.453125 640.875 441.046875 640.875 449.179688 Z M 640.875 449.179688 " fill-opacity="1" fill-rule="nonzero"/><g clip-path="url(#a209f79abd)"><path fill="#cad5ee" d="M 657.074219 243 C 648.125 243 640.875 249.597656 640.875 257.730469 L 640.875 272.457031 L 608.472656 272.457031 C 590.582031 272.457031 576.074219 285.644531 576.074219 301.910156 L 576.074219 508.089844 C 576.074219 540.625 605.085938 567 640.875 567 L 835.273438 567 C 871.0625 567 900.074219 540.625 900.074219 508.089844 L 900.074219 301.910156 C 900.074219 285.644531 885.570312 272.457031 867.671875 272.457031 L 835.273438 272.457031 L 835.273438 257.730469 C 835.273438 249.597656 828.023438 243 819.074219 243 C 810.125 243 802.875 249.597656 802.875 257.730469 L 802.875 272.457031 L 754.273438 272.457031 L 754.273438 257.730469 C 754.273438 249.597656 747.023438 243 738.074219 243 C 729.125 243 721.875 249.597656 721.875 257.730469 L 721.875 272.457031 L 673.273438 272.457031 L 673.273438 257.730469 C 673.273438 249.597656 666.023438 243 657.074219 243 Z M 802.875 301.910156 L 754.273438 301.910156 L 754.273438 316.640625 C 754.273438 324.769531 747.023438 331.367188 738.074219 331.367188 C 729.125 331.367188 721.875 324.769531 721.875 316.640625 L 721.875 301.910156 L 673.273438 301.910156 L 673.273438 316.640625 C 673.273438 324.769531 666.023438 331.367188 657.074219 331.367188 C 648.125 331.367188 640.875 324.769531 640.875 316.640625 L 640.875 301.910156 L 624.671875 301.910156 C 615.722656 301.910156 608.472656 308.507812 608.472656 316.640625 L 608.472656 508.089844 C 608.472656 524.355469 622.980469 537.542969 640.875 537.542969 L 835.273438 537.542969 C 853.171875 537.542969 867.671875 524.355469 867.671875 508.089844 L 867.671875 316.640625 C 867.671875 308.507812 860.421875 301.910156 851.472656 301.910156 L 835.273438 301.910156 L 835.273438 316.640625 C 835.273438 324.769531 828.023438 331.367188 819.074219 331.367188 C 810.125 331.367188 802.875 324.769531 802.875 316.640625 Z M 802.875 301.910156 " fill-opacity="1" fill-rule="evenodd"/></g></svg>