<svg xmlns="http://www.w3.org/2000/svg" xmlns:xlink="http://www.w3.org/1999/xlink" width="192" zoomAndPan="magnify" viewBox="0 0 144 143.999998" height="192" preserveAspectRatio="xMidYMid meet" version="1.0"><defs><clipPath id="cdd63e59e6"><path d="M 24.234375 24.234375 L 119.484375 24.234375 L 119.484375 119.484375 L 24.234375 119.484375 Z M 24.234375 24.234375 " clip-rule="nonzero"/></clipPath></defs><path fill="#ffe9ae" d="M 48.117188 71.996094 C 45.476562 71.996094 43.339844 70.054688 43.339844 67.652344 C 43.339844 65.257812 45.476562 63.3125 48.117188 63.3125 L 95.875 63.3125 C 98.515625 63.3125 100.652344 65.253906 100.652344 67.652344 C 100.652344 70.050781 98.515625 71.996094 95.875 71.996094 Z M 48.117188 71.996094 " fill-opacity="1" fill-rule="nonzero"/><path fill="#ffe9ae" d="M 43.339844 85.019531 C 43.339844 87.417969 45.476562 89.363281 48.117188 89.363281 L 76.773438 89.363281 C 79.410156 89.363281 81.546875 87.421875 81.546875 85.019531 C 81.546875 82.621094 79.410156 80.679688 76.773438 80.679688 L 48.117188 80.679688 C 45.476562 80.679688 43.339844 82.625 43.339844 85.019531 Z M 43.339844 85.019531 " fill-opacity="1" fill-rule="nonzero"/><g clip-path="url(#cdd63e59e6)"><path fill="#ffe9ae" d="M 48.117188 24.234375 C 45.476562 24.234375 43.339844 26.179688 43.339844 28.578125 L 43.339844 32.921875 L 33.789062 32.921875 C 28.511719 32.921875 24.234375 36.808594 24.234375 41.601562 L 24.234375 102.386719 C 24.234375 111.980469 32.789062 119.753906 43.339844 119.753906 L 100.652344 119.753906 C 111.203125 119.753906 119.753906 111.980469 119.753906 102.386719 L 119.753906 41.601562 C 119.753906 36.808594 115.480469 32.921875 110.203125 32.921875 L 100.652344 32.921875 L 100.652344 28.578125 C 100.652344 26.179688 98.515625 24.234375 95.875 24.234375 C 93.238281 24.234375 91.101562 26.179688 91.101562 28.578125 L 91.101562 32.921875 L 76.773438 32.921875 L 76.773438 28.578125 C 76.773438 26.179688 74.632812 24.234375 71.996094 24.234375 C 69.359375 24.234375 67.21875 26.179688 67.21875 28.578125 L 67.21875 32.921875 L 52.890625 32.921875 L 52.890625 28.578125 C 52.890625 26.179688 50.753906 24.234375 48.117188 24.234375 Z M 91.101562 41.601562 L 76.773438 41.601562 L 76.773438 45.945312 C 76.773438 48.34375 74.632812 50.289062 71.996094 50.289062 C 69.359375 50.289062 67.21875 48.34375 67.21875 45.945312 L 67.21875 41.601562 L 52.890625 41.601562 L 52.890625 45.945312 C 52.890625 48.34375 50.753906 50.289062 48.117188 50.289062 C 45.476562 50.289062 43.339844 48.34375 43.339844 45.945312 L 43.339844 41.601562 L 38.5625 41.601562 C 35.925781 41.601562 33.789062 43.546875 33.789062 45.945312 L 33.789062 102.386719 C 33.789062 107.183594 38.066406 111.070312 43.339844 111.070312 L 100.652344 111.070312 C 105.929688 111.070312 110.203125 107.183594 110.203125 102.386719 L 110.203125 45.945312 C 110.203125 43.546875 108.066406 41.601562 105.425781 41.601562 L 100.652344 41.601562 L 100.652344 45.945312 C 100.652344 48.34375 98.515625 50.289062 95.875 50.289062 C 93.238281 50.289062 91.101562 48.34375 91.101562 45.945312 Z M 91.101562 41.601562 " fill-opacity="1" fill-rule="evenodd"/></g></svg>